<svg width="26" height="26" viewBox="0 0 26 26" fill="none" xmlns="http://www.w3.org/2000/svg">
<path d="M1.29962 24.6557C3.01499 24.8676 4.73455 24.2955 5.97947 23.0986C6.87606 24.0899 8.15139 24.6557 9.48935 24.6557C10.8273 24.6557 12.1026 24.0899 12.9992 23.0986C13.8958 24.0899 15.1712 24.6557 16.5091 24.6557C17.8471 24.6557 19.1224 24.0899 20.019 23.0986C21.2639 24.2955 22.9835 24.8676 24.6988 24.6557" stroke="#062949" stroke-width="0.974971" stroke-linecap="round" stroke-linejoin="round"/>
<path d="M23.1466 21.55C23.7701 20.9774 24.275 20.2882 24.6327 19.5216C24.7397 19.2807 24.7173 19.0022 24.5734 18.7813C24.4294 18.5605 24.1832 18.4274 23.9193 18.4275H2.07999C1.81601 18.4274 1.56988 18.5605 1.42589 18.7813C1.28189 19.0022 1.25957 19.2807 1.36657 19.5216C1.7989 20.4385 2.43396 21.2456 3.22395 21.8822" stroke="#062949" stroke-width="0.974971" stroke-linecap="round" stroke-linejoin="round"/>
<path d="M12.2173 18.4283V2.61549C12.2175 2.04822 11.8533 1.54477 11.3138 1.36651C10.7742 1.18826 10.181 1.37537 9.84207 1.83071L2.8795 12.5498C2.72231 12.7892 2.7095 13.0955 2.84613 13.3473C2.98277 13.599 3.2468 13.7556 3.53364 13.7549L12.2153 13.7425" stroke="#062949" stroke-width="0.974971" stroke-linecap="round" stroke-linejoin="round"/>
<path fill-rule="evenodd" clip-rule="evenodd" d="M16.776 6.64393C16.5889 6.35313 16.232 6.22032 15.8998 6.31781C15.5676 6.4153 15.3396 6.71974 15.3398 7.06538V15.3138H20.9307C21.2159 15.3133 21.4781 15.1576 21.6147 14.9078C21.7514 14.6579 21.7407 14.3536 21.5869 14.1138L16.776 6.64393Z" stroke="#062949" stroke-width="0.974971" stroke-linecap="round" stroke-linejoin="round"/>
</svg>
