<svg width="1438" height="634" viewBox="0 0 1438 634" fill="none" xmlns="http://www.w3.org/2000/svg">
<path d="M1 34.8604C1 34.8604 12.179 28.5263 15.3878 18.2039C18.5966 7.88157 30.5002 1 30.5002 1" stroke="white" stroke-opacity="0.05" stroke-width="1.64612" stroke-miterlimit="10"/>
<path d="M1 63.4537C1 63.4537 38.004 54.4755 47.8051 31.8724C57.2061 9.89946 95.2102 1 95.2102 1" stroke="white" stroke-opacity="0.05" stroke-width="1.64612" stroke-miterlimit="10"/>
<path d="M1 92.7994C1 92.7994 64.1889 81.0956 80.586 45.9841C96.3833 12.1465 160.872 1 160.872 1" stroke="white" stroke-opacity="0.05" stroke-width="1.64612" stroke-miterlimit="10"/>
<path d="M1 120.64C1 120.64 90.3133 106.337 113.517 59.3187C135.62 14.1178 226.534 1 226.534 1" stroke="white" stroke-opacity="0.05" stroke-width="1.64612" stroke-miterlimit="10"/>
<path d="M1 149.233C1 149.233 116.876 132.306 146.772 73.0601C175.365 16.2663 293.147 1 293.147 1" stroke="white" stroke-opacity="0.05" stroke-width="1.64612" stroke-miterlimit="10"/>
<path d="M1 177.074C1 177.074 142.683 157.607 179.179 86.3574C213.974 18.3395 357.857 1 357.857 1" stroke="white" stroke-opacity="0.05" stroke-width="1.64612" stroke-miterlimit="10"/>
<path d="M1 205.668C1 205.668 168.768 183.505 211.959 100.14C253.151 20.402 423.519 1 423.519 1" stroke="white" stroke-opacity="0.05" stroke-width="1.64612" stroke-miterlimit="10"/>
<path d="M1 235.013C1 235.013 195.331 210.147 245.316 114.166C292.896 22.6195 490.132 1 490.132 1" stroke="white" stroke-opacity="0.05" stroke-width="1.64612" stroke-miterlimit="10"/>
<path d="M1 262.854C1 262.854 221.177 235.444 277.771 127.543C331.565 24.6972 554.842 1 554.842 1" stroke="white" stroke-opacity="0.05" stroke-width="1.64612" stroke-miterlimit="10"/>
<path d="M1 291.447C1 291.447 247.262 261.423 310.552 141.246C370.843 26.7578 620.504 1 620.504 1" stroke="white" stroke-opacity="0.05" stroke-width="1.64612" stroke-miterlimit="10"/>
<path d="M1 319.288C1 319.288 273.446 286.639 343.433 154.624C410.02 28.8384 686.165 1 686.165 1" stroke="white" stroke-opacity="0.05" stroke-width="1.64612" stroke-miterlimit="10"/>
<path d="M1 348.634C1 348.634 300.01 313.285 376.689 168.649C449.765 31.0502 752.779 1 752.779 1" stroke="white" stroke-opacity="0.05" stroke-width="1.64612" stroke-miterlimit="10"/>
<path d="M1 377.227C1 377.227 325.756 339.264 409.144 182.43C488.434 33.1102 817.489 1 817.489 1" stroke="white" stroke-opacity="0.05" stroke-width="1.64612" stroke-miterlimit="10"/>
<path d="M1 405.82C1 405.82 351.94 365.235 441.925 196.171C527.611 35.2559 883.15 1 883.15 1" stroke="white" stroke-opacity="0.05" stroke-width="1.64612" stroke-miterlimit="10"/>
<path d="M1 433.661C1 433.661 377.747 390.458 474.33 209.511C566.22 37.3315 947.861 1 947.861 1" stroke="white" stroke-opacity="0.05" stroke-width="1.64612" stroke-miterlimit="10"/>
<path d="M1 462.254C1 462.254 404.21 416.429 507.587 223.252C605.965 39.3984 1014.47 1 1014.47 1" stroke="white" stroke-opacity="0.05" stroke-width="1.64612" stroke-miterlimit="10"/>
<path d="M1 490.848C1 490.848 430.395 442.4 540.468 236.914C645.142 41.544 1080.14 1 1080.14 1" stroke="white" stroke-opacity="0.05" stroke-width="1.64612" stroke-miterlimit="10"/>
<path d="M1 519.441C1 519.441 456.241 468.3 572.923 250.696C683.811 43.683 1144.85 1 1144.85 1" stroke="white" stroke-opacity="0.05" stroke-width="1.64612" stroke-miterlimit="10"/>
<path d="M1 548.034C1 548.034 482.704 494.272 606.179 264.358C723.556 45.7494 1211.46 1 1211.46 1" stroke="white" stroke-opacity="0.05" stroke-width="1.64612" stroke-miterlimit="10"/>
<path d="M1 575.875C1 575.875 508.889 519.564 639.06 277.736C762.733 47.8335 1277.12 1 1277.12 1" stroke="white" stroke-opacity="0.05" stroke-width="1.64612" stroke-miterlimit="10"/>
<path d="M1 604.468C1 604.468 535.074 545.543 671.841 291.439C801.91 49.9726 1342.78 1 1342.78 1" stroke="white" stroke-opacity="0.05" stroke-width="1.64612" stroke-miterlimit="10"/>
<path d="M1 633.061C1 633.061 560.819 571.435 704.296 305.18C840.579 52.039 1407.49 1 1407.49 1" stroke="white" stroke-opacity="0.05" stroke-width="1.64612" stroke-miterlimit="10"/>
<path d="M1436.99 599.201C1436.99 599.201 1425.81 605.55 1422.6 615.896C1419.4 626.321 1407.49 633.062 1407.49 633.062" stroke="white" stroke-opacity="0.05" stroke-width="1.64612" stroke-miterlimit="10"/>
<path d="M1436.99 570.607C1436.99 570.607 1399.99 579.586 1390.19 602.189C1380.79 624.162 1342.78 633.061 1342.78 633.061" stroke="white" stroke-opacity="0.05" stroke-width="1.64612" stroke-miterlimit="10"/>
<path d="M1436.98 541.262C1436.98 541.262 1373.79 552.966 1357.4 588.077C1341.5 621.915 1277.11 633.061 1277.11 633.061" stroke="white" stroke-opacity="0.05" stroke-width="1.64612" stroke-miterlimit="10"/>
<path d="M1436.99 513.421C1436.99 513.421 1347.71 527.724 1324.52 574.742C1302.43 619.864 1211.45 633.061 1211.45 633.061" stroke="white" stroke-opacity="0.05" stroke-width="1.64612" stroke-miterlimit="10"/>
<path d="M1436.98 484.828C1436.98 484.828 1321.1 501.756 1291.2 561.001C1262.61 617.795 1144.83 633.062 1144.83 633.062" stroke="white" stroke-opacity="0.05" stroke-width="1.64612" stroke-miterlimit="10"/>
<path d="M1436.99 456.987C1436.99 456.987 1295.31 476.446 1258.81 547.664C1223.92 615.73 1080.13 633.062 1080.13 633.062" stroke="white" stroke-opacity="0.05" stroke-width="1.64612" stroke-miterlimit="10"/>
<path d="M1436.99 428.395C1436.99 428.395 1269.56 450.557 1226.45 533.923C1185.35 613.581 1015.42 633.062 1015.42 633.062" stroke="white" stroke-opacity="0.05" stroke-width="1.64612" stroke-miterlimit="10"/>
<path d="M1436.98 399.049C1436.98 399.049 1242.65 423.915 1192.67 519.896C1144.99 611.443 947.852 633.062 947.852 633.062" stroke="white" stroke-opacity="0.05" stroke-width="1.64612" stroke-miterlimit="10"/>
<path d="M1436.98 371.207C1436.98 371.207 1216.85 398.609 1160.26 506.477C1106.38 609.371 883.141 633.061 883.141 633.061" stroke="white" stroke-opacity="0.05" stroke-width="1.64612" stroke-miterlimit="10"/>
<path d="M1437 342.614C1437 342.614 1190.78 372.639 1127.5 492.816C1067.22 607.225 817.5 633.062 817.5 633.062" stroke="white" stroke-opacity="0.05" stroke-width="1.64612" stroke-miterlimit="10"/>
<path d="M1436.99 314.773C1436.99 314.773 1164.92 347.422 1095.03 479.438C1028.54 605.223 752.773 633.062 752.773 633.062" stroke="white" stroke-opacity="0.05" stroke-width="1.64612" stroke-miterlimit="10"/>
<path d="M1436.99 285.428C1436.99 285.428 1138.36 320.768 1061.78 465.372C988.794 603.018 686.164 633.062 686.164 633.062" stroke="white" stroke-opacity="0.05" stroke-width="1.64612" stroke-miterlimit="10"/>
<path d="M1436.98 256.834C1436.98 256.834 1112.26 294.797 1028.89 451.631C949.607 600.951 620.492 633.061 620.492 633.061" stroke="white" stroke-opacity="0.05" stroke-width="1.64612" stroke-miterlimit="10"/>
<path d="M1436.99 228.24C1436.99 228.24 1086.09 268.825 996.111 437.889C910.435 598.805 554.836 633.061 554.836 633.061" stroke="white" stroke-opacity="0.05" stroke-width="1.64612" stroke-miterlimit="10"/>
<path d="M1437 200.4C1437 200.4 1060.25 243.603 963.671 424.55C871.781 596.73 490.141 633.062 490.141 633.062" stroke="white" stroke-opacity="0.05" stroke-width="1.64612" stroke-miterlimit="10"/>
<path d="M1436.99 171.807C1436.99 171.807 1033.78 217.632 930.403 410.809C832.024 594.663 423.516 633.061 423.516 633.061" stroke="white" stroke-opacity="0.05" stroke-width="1.64612" stroke-miterlimit="10"/>
<path d="M1436.99 143.214C1436.99 143.214 1007.6 191.661 897.527 397.147C792.853 592.517 357.859 633.061 357.859 633.061" stroke="white" stroke-opacity="0.05" stroke-width="1.64612" stroke-miterlimit="10"/>
<path d="M1436.98 114.621C1436.98 114.621 981.778 165.762 865.106 383.366C754.227 590.379 293.133 633.062 293.133 633.062" stroke="white" stroke-opacity="0.05" stroke-width="1.64612" stroke-miterlimit="10"/>
<path d="M1436.98 86.0273C1436.98 86.0273 955.318 139.79 831.853 369.704C714.486 588.312 226.523 633.061 226.523 633.061" stroke="white" stroke-opacity="0.05" stroke-width="1.64612" stroke-miterlimit="10"/>
<path d="M1437 58.1865C1437 58.1865 929.115 114.497 798.943 356.325C675.27 586.228 160.883 633.061 160.883 633.061" stroke="white" stroke-opacity="0.05" stroke-width="1.64612" stroke-miterlimit="10"/>
<path d="M1437 29.5938C1437 29.5938 902.928 88.5188 766.16 342.623C635.991 584.089 95.2188 633.062 95.2188 633.062" stroke="white" stroke-opacity="0.05" stroke-width="1.64612" stroke-miterlimit="10"/>
<path d="M1436.99 1C1436.99 1 877.213 62.626 733.746 328.882C597.373 582.023 30.5 633.061 30.5 633.061" stroke="white" stroke-opacity="0.05" stroke-width="1.64612" stroke-miterlimit="10"/>
</svg>
