<svg width="24" height="23" viewBox="0 0 24 23" fill="none" xmlns="http://www.w3.org/2000/svg">
<path d="M8.40033 21.8819H14.1616" stroke="#062949" stroke-width="0.900043" stroke-linecap="round" stroke-linejoin="round"/>
<path d="M11.283 21.8812V13.6093" stroke="#062949" stroke-width="0.900043" stroke-linecap="round" stroke-linejoin="round"/>
<path fill-rule="evenodd" clip-rule="evenodd" d="M18.6973 6.51338C18.903 6.31623 18.9645 6.01993 18.8531 5.76249C18.7417 5.50505 18.4794 5.3371 18.1883 5.33685H4.38066C4.08956 5.3371 3.82724 5.50505 3.71588 5.76249C3.60452 6.01993 3.66601 6.31623 3.87172 6.51338L11.285 13.6093L18.6973 6.51338Z" stroke="#062949" stroke-width="0.900043" stroke-linecap="round" stroke-linejoin="round"/>
<path d="M1.20013 1.20013H3.90984C4.45548 1.19998 4.95436 1.49496 5.19844 1.96207L6.96138 5.3361" stroke="#062949" stroke-width="0.900043" stroke-linecap="round" stroke-linejoin="round"/>
<path d="M15.6774 5.33687C15.6295 5.10964 15.6054 4.87842 15.6054 4.64662C15.6071 3.09718 16.6896 1.73958 18.2505 1.32925C19.8114 0.918926 21.4665 1.55692 22.2947 2.88821C23.1228 4.21951 22.9202 5.91629 21.7996 7.03438C20.6789 8.15247 18.9162 8.41655 17.4922 7.67966" stroke="#062949" stroke-width="0.900043" stroke-linecap="round" stroke-linejoin="round"/>
</svg>
