<svg width="3996" height="1310" viewBox="0 0 3996 1310" fill="none" xmlns="http://www.w3.org/2000/svg">
<g opacity="0.05">
<path d="M314.996 678.824C465.548 631.965 380.725 603.476 531.277 556.617C681.829 509.758 766.652 538.247 917.16 491.401C1067.67 444.555 982.889 416.053 1133.44 369.194C1283.99 322.334 1368.82 350.823 1519.37 303.964C1669.92 257.105 1585.1 228.616 1735.69 181.743C1886.29 134.871 1971.07 163.373 2121.62 116.514" stroke="#062949" stroke-width="1.2" stroke-miterlimit="10"/>
<path d="M2001.86 1236.27C2152.41 1189.41 2067.59 1160.92 2218.14 1114.06C2368.69 1067.2 2453.52 1095.69 2604.03 1048.85C2754.53 1002 2669.75 973.499 2820.31 926.639C2970.86 879.78 3055.68 908.269 3206.23 861.41C3356.78 814.551 3271.96 786.062 3422.56 739.189C3573.15 692.316 3657.93 720.819 3808.48 673.959" stroke="#062949" stroke-width="1.2" stroke-miterlimit="10"/>
<path d="M945.087 880.238C1095.64 833.378 1010.82 804.89 1161.37 758.03C1311.92 711.171 1396.74 739.66 1547.25 692.814C1697.76 645.968 1612.98 617.466 1763.53 570.607C1914.08 523.748 1998.91 552.237 2149.46 505.377C2300.01 458.518 2215.19 430.029 2365.78 383.157C2516.38 336.284 2601.16 364.786 2751.71 317.927" stroke="#062949" stroke-width="1.2" stroke-miterlimit="10"/>
<path d="M1482.43 1060.94C1632.98 1014.08 1548.16 985.59 1698.71 938.731C1849.26 891.872 1934.08 920.361 2084.59 873.515C2235.1 826.669 2150.32 798.167 2300.87 751.308C2451.43 704.449 2536.25 732.937 2686.8 686.078C2837.35 639.219 2752.53 610.73 2903.12 563.858C3053.72 516.985 3138.5 545.487 3289.05 498.628" stroke="#062949" stroke-width="1.2" stroke-miterlimit="10"/>
<path d="M409.757 705.484C560.309 658.625 475.486 630.136 626.037 583.277C776.589 536.418 861.412 564.906 1011.92 518.061C1162.43 471.215 1077.65 442.713 1228.2 395.854C1378.75 348.994 1463.58 377.483 1614.13 330.624C1764.68 283.765 1679.86 255.276 1830.45 208.403C1981.05 161.531 2065.83 190.033 2216.38 143.174" stroke="#062949" stroke-width="1.2" stroke-miterlimit="10"/>
<path d="M1725.19 1149.95C1875.74 1103.1 1790.92 1074.61 1941.47 1027.75C2092.02 980.888 2176.85 1009.38 2327.36 962.531C2477.86 915.686 2393.08 887.183 2543.64 840.324C2694.19 793.465 2779.01 821.954 2929.56 775.095C3080.11 728.235 2995.29 699.747 3145.89 652.874C3296.48 606.001 3381.26 634.503 3531.81 587.644" stroke="#062949" stroke-width="1.2" stroke-miterlimit="10"/>
<path d="M670.202 794.63C820.754 747.77 735.931 719.282 886.483 672.422C1037.03 625.563 1121.86 654.052 1272.37 607.206C1422.87 560.361 1338.1 531.858 1488.65 484.999C1639.2 438.14 1724.02 466.629 1874.57 419.769C2025.13 372.91 1940.3 344.421 2090.9 297.549C2241.49 250.676 2326.27 279.178 2476.82 232.319" stroke="#062949" stroke-width="1.2" stroke-miterlimit="10"/>
<path d="M1205.76 974.625C1356.31 927.766 1271.49 899.277 1422.04 852.418C1572.59 805.559 1657.42 834.048 1807.92 787.202C1958.43 740.356 1873.65 711.854 2024.2 664.995C2174.76 618.135 2259.58 646.624 2410.13 599.765C2560.68 552.906 2475.86 524.417 2626.46 477.544C2777.05 430.672 2861.83 459.174 3012.38 412.315" stroke="#062949" stroke-width="1.2" stroke-miterlimit="10"/>
<path d="M133.088 619.171C283.639 572.312 198.816 543.823 349.368 496.964C499.92 450.105 584.743 478.593 735.252 431.748C885.76 384.902 800.981 356.4 951.532 309.541C1102.08 262.681 1186.91 291.17 1337.46 244.311C1488.01 197.452 1403.19 168.963 1553.78 122.09C1704.38 75.2175 1789.16 103.72 1939.71 56.8606" stroke="#062949" stroke-width="1.2" stroke-miterlimit="10"/>
<path d="M2050.87 1248.28C2201.42 1201.42 2116.6 1172.93 2267.15 1126.07C2417.7 1079.21 2502.53 1107.7 2653.04 1060.86C2803.54 1014.01 2718.76 985.507 2869.32 938.648C3019.87 891.789 3104.69 920.278 3255.24 873.418C3405.79 826.559 3320.97 798.07 3471.57 751.198C3622.16 704.325 3706.94 732.827 3857.49 685.968" stroke="#062949" stroke-width="1.2" stroke-miterlimit="10"/>
<path d="M994.112 892.245C1144.66 845.386 1059.84 816.897 1210.39 770.038C1360.94 723.179 1445.77 751.668 1596.28 704.822C1746.78 657.976 1662.01 629.474 1812.56 582.615C1963.11 535.756 2047.93 564.244 2198.48 517.385C2349.04 470.526 2264.21 442.037 2414.81 395.164C2565.4 348.292 2650.18 376.794 2800.73 329.935" stroke="#062949" stroke-width="1.2" stroke-miterlimit="10"/>
<path d="M1531.44 1072.95C1681.99 1026.09 1597.17 997.601 1747.72 950.742C1898.27 903.883 1983.09 932.371 2133.6 885.526C2284.11 838.68 2199.33 810.178 2349.88 763.318C2500.44 716.459 2585.26 744.948 2735.81 698.089C2886.36 651.23 2801.54 622.741 2952.13 575.868C3102.73 528.995 3187.51 557.498 3338.06 510.638" stroke="#062949" stroke-width="1.2" stroke-miterlimit="10"/>
<path d="M458.779 717.493C609.331 670.633 524.508 642.145 675.059 595.285C825.611 548.426 910.434 576.915 1060.94 530.069C1211.45 483.224 1126.67 454.721 1277.22 407.862C1427.78 361.003 1512.6 389.492 1663.15 342.632C1813.7 295.773 1728.88 267.284 1879.47 220.412C2030.07 173.539 2114.85 202.041 2265.4 155.182" stroke="#062949" stroke-width="1.2" stroke-miterlimit="10"/>
<path d="M1774.21 1161.96C1924.76 1115.11 1839.94 1086.62 1990.49 1039.76C2141.04 992.898 2225.86 1021.39 2376.37 974.541C2526.88 927.695 2442.1 899.193 2592.65 852.334C2743.21 805.475 2828.03 833.964 2978.58 787.104C3129.13 740.245 3044.31 711.756 3194.9 664.884C3345.5 618.011 3430.28 646.513 3580.83 599.654" stroke="#062949" stroke-width="1.2" stroke-miterlimit="10"/>
<path d="M719.224 806.638C869.775 759.779 784.952 731.29 935.504 684.431C1086.06 637.572 1170.88 666.061 1321.39 619.215C1471.9 572.369 1387.12 543.867 1537.67 497.008C1688.22 450.149 1773.04 478.637 1923.6 431.778C2074.15 384.919 1989.32 356.43 2139.92 309.557C2290.51 262.685 2375.29 291.187 2525.85 244.328" stroke="#062949" stroke-width="1.2" stroke-miterlimit="10"/>
<path d="M1254.77 986.634C1405.32 939.775 1320.49 911.286 1471.05 864.427C1621.6 817.568 1706.42 846.056 1856.93 799.211C2007.44 752.365 1922.66 723.863 2073.21 677.003C2223.76 630.144 2308.59 658.633 2459.14 611.774C2609.69 564.915 2524.87 536.426 2675.46 489.553C2826.06 442.68 2910.84 471.183 3061.39 424.323" stroke="#062949" stroke-width="1.2" stroke-miterlimit="10"/>
<path d="M182.105 631.18C332.657 584.32 247.834 555.832 398.386 508.972C548.937 462.113 633.76 490.602 784.269 443.756C934.778 396.911 849.998 368.408 1000.55 321.549C1151.1 274.69 1235.92 303.179 1386.48 256.319C1537.03 209.46 1452.21 180.971 1602.8 134.099C1753.4 87.2261 1838.18 115.728 1988.73 68.8691" stroke="#062949" stroke-width="1.2" stroke-miterlimit="10"/>
<path d="M2141.35 1281.68C2291.9 1234.82 2207.08 1206.33 2357.63 1159.47C2508.18 1112.61 2593 1141.1 2743.51 1094.25C2894.02 1047.41 2809.24 1018.9 2959.79 972.045C3110.34 925.186 3195.17 953.675 3345.72 906.815C3496.27 859.955 3411.45 831.466 3562.04 784.593C3712.64 737.72 3797.42 766.223 3947.97 719.363" stroke="#062949" stroke-width="1.2" stroke-miterlimit="10"/>
<path d="M1084.58 925.646C1235.14 878.787 1150.31 850.298 1300.87 803.439C1451.42 756.58 1536.24 785.068 1686.75 738.223C1837.26 691.377 1752.48 662.875 1903.03 616.015C2053.58 569.156 2138.4 597.645 2288.96 550.786C2439.51 503.927 2354.68 475.438 2505.28 428.565C2655.88 381.692 2740.65 410.195 2891.21 363.335" stroke="#062949" stroke-width="1.2" stroke-miterlimit="10"/>
<path d="M1604.24 1106.22C1754.79 1059.36 1669.96 1030.87 1820.52 984.012C1971.07 937.153 2055.89 965.642 2206.4 918.796C2356.91 871.951 2272.13 843.448 2422.68 796.589C2573.23 749.73 2658.06 778.219 2808.61 731.36C2959.16 684.5 2874.34 656.011 3024.93 609.139C3175.53 562.266 3260.31 590.768 3410.86 543.909" stroke="#062949" stroke-width="1.2" stroke-miterlimit="10"/>
<path d="M549.255 750.893C699.806 704.034 614.983 675.545 765.535 628.686C916.087 581.827 1000.91 610.316 1151.42 563.47C1301.93 516.624 1217.15 488.122 1367.7 441.263C1518.25 394.403 1603.07 422.892 1753.63 376.033C1904.18 329.174 1819.36 300.685 1969.95 253.812C2120.55 206.94 2205.33 235.442 2355.88 188.583" stroke="#062949" stroke-width="1.2" stroke-miterlimit="10"/>
<path d="M1864.68 1195.36C2015.23 1148.51 1930.41 1120.02 2080.96 1073.16C2231.51 1026.3 2316.33 1054.79 2466.84 1007.94C2617.35 961.095 2532.57 932.593 2683.12 885.734C2833.67 838.874 2918.5 867.363 3069.05 820.504C3219.6 773.645 3134.78 745.156 3285.37 698.283C3435.97 651.411 3520.75 679.913 3671.3 633.054" stroke="#062949" stroke-width="1.2" stroke-miterlimit="10"/>
<path d="M807.916 839.332C958.468 792.473 873.645 763.984 1024.2 717.125C1174.75 670.266 1259.57 698.754 1410.08 651.909C1560.59 605.063 1475.81 576.561 1626.36 529.701C1776.91 482.842 1861.74 511.331 2012.29 464.472C2162.84 417.613 2078.02 389.124 2228.61 342.251C2379.21 295.378 2463.99 323.881 2614.54 277.021" stroke="#062949" stroke-width="1.2" stroke-miterlimit="10"/>
<path d="M1345.24 1020.03C1495.79 973.176 1410.97 944.687 1561.52 897.828C1712.07 850.968 1796.9 879.457 1947.41 832.612C2097.91 785.766 2013.14 757.264 2163.69 710.404C2314.24 663.545 2399.06 692.034 2549.61 645.175C2700.17 598.315 2615.34 569.827 2765.94 522.954C2916.53 476.081 3001.31 504.584 3151.86 457.724" stroke="#062949" stroke-width="1.2" stroke-miterlimit="10"/>
<path d="M272.577 664.581C423.129 617.722 338.306 589.233 488.858 542.374C639.41 495.514 724.233 524.003 874.741 477.157C1025.25 430.312 940.47 401.809 1091.02 354.95C1241.57 308.091 1326.4 336.58 1476.95 289.721C1627.5 242.861 1542.68 214.373 1693.27 167.5C1843.87 120.627 1928.65 149.129 2079.2 102.27" stroke="#062949" stroke-width="1.2" stroke-miterlimit="10"/>
<path d="M1959.44 1222.02C2109.99 1175.16 2025.17 1146.68 2175.72 1099.82C2326.27 1052.96 2411.09 1081.45 2561.6 1034.6C2712.11 987.755 2627.33 959.253 2777.88 912.394C2928.43 865.534 3013.26 894.023 3163.81 847.164C3314.36 800.305 3229.54 771.816 3380.13 724.943C3530.73 678.071 3615.51 706.573 3766.06 659.714" stroke="#062949" stroke-width="1.2" stroke-miterlimit="10"/>
<path d="M902.687 865.992C1053.24 819.132 968.416 790.644 1118.97 743.784C1269.52 696.925 1354.34 725.414 1504.85 678.568C1655.36 631.723 1570.58 603.22 1721.13 556.361C1871.68 509.502 1956.51 537.991 2107.06 491.131C2257.61 444.272 2172.79 415.783 2323.38 368.911C2473.98 322.038 2558.76 350.54 2709.31 303.681" stroke="#062949" stroke-width="1.2" stroke-miterlimit="10"/>
<path d="M1440.01 1046.69C1590.56 999.835 1505.74 971.347 1656.29 924.487C1806.84 877.628 1891.67 906.117 2042.17 859.271C2192.68 812.425 2107.9 783.923 2258.46 737.064C2409.01 690.205 2493.83 718.694 2644.38 671.834C2794.93 624.975 2710.11 596.486 2860.71 549.614C3011.3 502.741 3096.08 531.243 3246.63 484.384" stroke="#062949" stroke-width="1.2" stroke-miterlimit="10"/>
<path d="M367.35 691.24C517.902 644.381 433.079 615.892 583.63 569.033C734.182 522.174 819.005 550.663 969.514 503.817C1120.02 456.971 1035.24 428.469 1185.79 381.61C1336.35 334.75 1421.17 363.239 1571.72 316.38C1722.27 269.521 1637.45 241.032 1788.05 194.159C1938.64 147.287 2023.42 175.789 2173.97 128.93" stroke="#062949" stroke-width="1.2" stroke-miterlimit="10"/>
<path d="M1682.78 1135.71C1833.33 1088.85 1748.5 1060.36 1899.06 1013.5C2049.61 966.644 2134.43 995.133 2284.94 948.287C2435.45 901.441 2350.67 872.939 2501.22 826.08C2651.77 779.22 2736.6 807.709 2887.15 760.85C3037.7 713.991 2952.88 685.502 3103.47 638.629C3254.07 591.757 3338.85 620.259 3489.4 573.4" stroke="#062949" stroke-width="1.2" stroke-miterlimit="10"/>
<path d="M627.795 780.384C778.347 733.525 693.524 705.036 844.076 658.177C994.628 611.318 1079.45 639.806 1229.96 592.961C1380.47 546.115 1295.69 517.613 1446.24 470.753C1596.79 423.894 1681.61 452.383 1832.17 405.524C1982.72 358.665 1897.9 330.176 2048.49 283.303C2199.09 236.43 2283.87 264.933 2434.42 218.073" stroke="#062949" stroke-width="1.2" stroke-miterlimit="10"/>
<path d="M1163.34 960.38C1313.89 913.52 1229.07 885.032 1379.62 838.172C1530.17 791.313 1615 819.802 1765.51 772.956C1916.01 726.111 1831.23 697.608 1981.79 650.749C2132.34 603.89 2217.16 632.379 2367.71 585.519C2518.26 538.66 2433.44 510.171 2584.04 463.299C2734.63 416.426 2819.41 444.928 2969.96 398.069" stroke="#062949" stroke-width="1.2" stroke-miterlimit="10"/>
<path d="M90.6566 604.928C241.208 558.069 156.385 529.58 306.937 482.721C457.489 435.862 542.312 464.351 692.821 417.505C843.329 370.659 758.55 342.157 909.102 295.298C1059.65 248.438 1144.48 276.927 1295.03 230.068C1445.58 183.209 1360.76 154.72 1511.35 107.847C1661.95 60.9746 1746.73 89.4769 1897.28 42.6177" stroke="#062949" stroke-width="1.2" stroke-miterlimit="10"/>
<path d="M1387.65 1034.28C1538.21 987.419 1453.38 958.931 1603.93 912.071C1754.49 865.212 1839.31 893.701 1989.82 846.855C2140.33 800.009 2055.55 771.507 2206.1 724.648C2356.65 677.789 2441.47 706.278 2592.02 659.418C2742.58 612.559 2657.75 584.07 2808.35 537.198C2958.94 490.325 3043.72 518.827 3194.28 471.968" stroke="#062949" stroke-width="1.2" stroke-miterlimit="10"/>
<path d="M2183.75 1295.92C2334.31 1249.06 2249.48 1220.57 2400.03 1173.72C2550.59 1126.86 2635.41 1155.34 2785.92 1108.5C2936.43 1061.65 2851.65 1033.15 3002.2 986.29C3152.75 939.43 3237.57 967.92 3388.12 921.06C3538.68 874.2 3453.85 845.711 3604.45 798.838C3755.04 751.965 3839.82 780.468 3990.37 733.608" stroke="#062949" stroke-width="1.2" stroke-miterlimit="10"/>
<path d="M1127 939.89C1277.55 893.03 1192.73 864.542 1343.28 817.682C1493.83 770.823 1578.66 799.312 1729.16 752.466C1879.67 705.621 1794.89 677.118 1945.44 630.259C2096 583.4 2180.82 611.889 2331.37 565.029C2481.92 518.17 2397.1 489.681 2547.7 442.809C2698.29 395.936 2783.07 424.438 2933.62 377.579" stroke="#062949" stroke-width="1.2" stroke-miterlimit="10"/>
<path d="M1646.65 1120.47C1797.2 1073.61 1712.38 1045.12 1862.93 998.258C2013.48 951.399 2098.3 979.888 2248.81 933.042C2399.32 886.196 2314.54 857.694 2465.09 810.835C2615.64 763.976 2700.47 792.465 2851.02 745.605C3001.57 698.746 2916.75 670.257 3067.34 623.385C3217.94 576.512 3302.72 605.014 3453.27 558.155" stroke="#062949" stroke-width="1.2" stroke-miterlimit="10"/>
<path d="M591.666 765.137C742.218 718.278 657.395 689.789 807.946 642.93C958.498 596.071 1043.32 624.56 1193.83 577.714C1344.34 530.868 1259.56 502.366 1410.11 455.507C1560.66 408.648 1645.49 437.136 1796.04 390.277C1946.59 343.418 1861.77 314.929 2012.36 268.057C2162.96 221.184 2247.74 249.686 2398.29 202.827" stroke="#062949" stroke-width="1.2" stroke-miterlimit="10"/>
<path d="M1907.09 1209.61C2057.64 1162.75 1972.82 1134.26 2123.37 1087.4C2273.92 1040.54 2358.74 1069.03 2509.25 1022.19C2659.76 975.34 2574.98 946.838 2725.53 899.979C2876.08 853.119 2960.91 881.608 3111.46 834.749C3262.01 787.89 3177.19 759.401 3327.78 712.528C3478.38 665.656 3563.16 694.158 3713.71 647.299" stroke="#062949" stroke-width="1.2" stroke-miterlimit="10"/>
<path d="M850.326 853.578C1000.88 806.718 916.055 778.23 1066.61 731.37C1217.16 684.511 1301.98 713 1452.49 666.154C1603 619.309 1518.22 590.806 1668.77 543.947C1819.32 497.088 1904.15 525.577 2054.7 478.717C2205.25 431.858 2120.43 403.369 2271.02 356.497C2421.62 309.624 2506.4 338.126 2656.95 291.267" stroke="#062949" stroke-width="1.2" stroke-miterlimit="10"/>
<path d="M2093.29 1262.52C2243.84 1215.66 2159.02 1187.17 2309.57 1140.31C2460.12 1093.46 2544.95 1121.94 2695.46 1075.1C2845.96 1028.25 2761.18 999.75 2911.74 952.89C3062.29 906.03 3147.11 934.519 3297.66 887.66C3448.21 840.8 3363.39 812.311 3513.99 765.438C3664.58 718.565 3749.36 747.067 3899.91 700.208" stroke="#062949" stroke-width="1.2" stroke-miterlimit="10"/>
<path d="M1036.52 906.491C1187.07 859.632 1102.25 831.143 1252.8 784.283C1403.35 737.424 1488.18 765.913 1638.68 719.067C1789.19 672.222 1704.41 643.719 1854.96 596.86C2005.52 550.001 2090.34 578.49 2240.89 531.631C2391.44 484.771 2306.62 456.282 2457.22 409.41C2607.81 362.537 2692.59 391.039 2843.14 344.18" stroke="#062949" stroke-width="1.2" stroke-miterlimit="10"/>
<path d="M1573.85 1087.19C1724.4 1040.33 1639.58 1011.85 1790.13 964.986C1940.68 918.127 2025.51 946.616 2176.01 899.77C2326.52 852.924 2241.74 824.422 2392.29 777.563C2542.85 730.704 2627.67 759.192 2778.22 712.333C2928.77 665.474 2843.95 636.985 2994.55 590.112C3145.14 543.24 3229.92 571.742 3380.47 524.883" stroke="#062949" stroke-width="1.2" stroke-miterlimit="10"/>
<path d="M501.189 731.737C651.741 684.878 566.918 656.389 717.47 609.53C868.022 562.671 952.845 591.16 1103.35 544.314C1253.86 497.468 1169.08 468.966 1319.63 422.107C1470.19 375.247 1555.01 403.736 1705.56 356.877C1856.11 310.018 1771.29 281.529 1921.88 234.656C2072.48 187.784 2157.26 216.286 2307.81 169.427" stroke="#062949" stroke-width="1.2" stroke-miterlimit="10"/>
<path d="M1816.61 1176.21C1967.16 1129.35 1882.34 1100.86 2032.89 1054C2183.44 1007.14 2268.27 1035.63 2418.78 988.787C2569.28 941.941 2484.51 913.439 2635.06 866.58C2785.61 819.72 2870.43 848.209 3020.98 801.35C3171.54 754.491 3086.71 726.002 3237.31 679.129C3387.9 632.257 3472.68 660.759 3623.23 613.9" stroke="#062949" stroke-width="1.2" stroke-miterlimit="10"/>
<path d="M761.635 820.881C912.187 774.022 827.364 745.533 977.916 698.674C1128.47 651.815 1213.29 680.303 1363.8 633.458C1514.31 586.612 1429.53 558.11 1580.08 511.25C1730.63 464.391 1815.45 492.88 1966.01 446.021C2116.56 399.162 2031.74 370.673 2182.33 323.8C2332.93 276.927 2417.71 305.43 2568.26 258.571" stroke="#062949" stroke-width="1.2" stroke-miterlimit="10"/>
<path d="M1297.18 1000.88C1447.73 954.02 1362.91 925.532 1513.46 878.672C1664.01 831.813 1748.83 860.302 1899.34 813.456C2049.85 766.611 1965.07 738.108 2115.62 691.249C2266.17 644.39 2351 672.879 2501.55 626.019C2652.1 579.16 2567.28 550.671 2717.87 503.799C2868.47 456.926 2953.25 485.428 3103.8 438.569" stroke="#062949" stroke-width="1.2" stroke-miterlimit="10"/>
<path d="M224.493 645.425C375.045 598.566 290.222 570.077 440.774 523.218C591.326 476.359 676.149 504.848 826.657 458.002C977.166 411.156 892.386 382.654 1042.94 335.795C1193.49 288.935 1278.31 317.424 1428.86 270.565C1579.42 223.706 1494.59 195.217 1645.19 148.344C1795.78 101.472 1880.56 129.974 2031.12 83.1147" stroke="#062949" stroke-width="1.2" stroke-miterlimit="10"/>
</g>
</svg>
