<svg width="26" height="26" viewBox="0 0 26 26" fill="none" xmlns="http://www.w3.org/2000/svg">
<ellipse cx="7.83015" cy="4.15396" rx="2.83503" ry="2.80337" stroke="#062949" stroke-width="1.01272" stroke-linecap="round" stroke-linejoin="round"/>
<path d="M12.8894 15.7523C12.1635 15.2652 11.5448 14.6378 11.0707 13.9079V24.0534C11.0707 24.9382 10.3454 25.6554 9.45067 25.6554C8.55596 25.6554 7.83065 24.9382 7.83065 24.0534C7.83065 24.9382 7.10535 25.6554 6.21064 25.6554C5.31593 25.6554 4.59062 24.9382 4.59062 24.0534V16.8426C4.59062 17.7274 3.86531 18.4446 2.9706 18.4446C2.07589 18.4446 1.35059 17.7274 1.35059 16.8426V13.6388C1.35059 10.9846 3.5265 8.83301 6.21064 8.83301H9.07267C10.4541 8.83425 11.7697 9.41676 12.6907 10.4349" stroke="#062949" stroke-width="1.01272" stroke-linecap="round" stroke-linejoin="round"/>
<path d="M4.58887 16.8417V13.6387" stroke="#062949" stroke-width="1.01272" stroke-linecap="round" stroke-linejoin="round"/>
<path fill-rule="evenodd" clip-rule="evenodd" d="M20.2651 2.03372C20.5683 1.77522 21.0172 1.77522 21.3203 2.03372C24.1769 4.57948 25.7604 8.23614 25.6522 12.0372C25.5863 16.2787 24.895 20.488 23.6002 24.5322C23.3877 25.1988 22.7626 25.6522 22.0558 25.6525H19.5253C18.8185 25.6522 18.1934 25.1988 17.9809 24.5322C16.6861 20.488 15.9949 16.2787 15.9289 12.0372C15.8222 8.23552 17.4072 4.57886 20.2651 2.03372V2.03372Z" stroke="#062949" stroke-width="1.01272" stroke-linecap="round" stroke-linejoin="round"/>
<path d="M16.0664 15.1034L24.6148 6.65039" stroke="#062949" stroke-width="1.01272" stroke-linecap="round" stroke-linejoin="round"/>
<path d="M17.0107 20.9799L25.6467 12.4404" stroke="#062949" stroke-width="1.01272" stroke-linecap="round" stroke-linejoin="round"/>
</svg>
